HIERARCHY
ROOT hip
{
  OFFSET -4.53825 84.5269 34.9341
  CHANNELS 6 Xposition Yposition Zposition Zrotation Xrotation Yrotation
  JOINT abdomen
  {
    OFFSET 0 20.6881 -0.73152
    CHANNELS 3 Zrotation Xrotation Yrotation
    JOINT chest
    {
      OFFSET 0 11.7043 -0.48768
      CHANNELS 3 Zrotation Xrotation Yrotation
      JOINT neck
      {
        OFFSET 0 22.1894 -2.19456
        CHANNELS 3 Zrotation Xrotation Yrotation
        JOINT head
        {
          OFFSET -0.24384 7.07133 1.2192
          CHANNELS 3 Zrotation Xrotation Yrotation
          JOINT leftEye
          {
            OFFSET 4.14528 8.04674 8.04672
            CHANNELS 3 Zrotation Xrotation Yrotation
            End Site
            {
              OFFSET 1 0 0
            }
          }
          JOINT rightEye
          {
            OFFSET -3.6576 8.04674 8.04672
            CHANNELS 3 Zrotation Xrotation Yrotation
            End Site
            {
              OFFSET 1 0 0
            }
          }
        }
      }
      JOINT rCollar
      {
        OFFSET -2.68224 19.2634 -4.8768
        CHANNELS 3 Zrotation Xrotation Yrotation
        JOINT rShldr
        {
          OFFSET -8.77824 -1.95073 1.46304
          CHANNELS 3 Zrotation Xrotation Yrotation
          JOINT rForeArm
          {
            OFFSET -28.1742 -1.7115 0.48768
            CHANNELS 3 Zrotation Xrotation Yrotation
            JOINT rHand
            {
              OFFSET -22.5879 0.773209 7.07136
              CHANNELS 3 Zrotation Xrotation Yrotation
              JOINT rThumb1
              {
                OFFSET -1.2192 -0.487915 3.41376
                CHANNELS 3 Zrotation Xrotation Yrotation
                JOINT rThumb2
                {
                  OFFSET -3.37035 -0.52449 3.41376
                  CHANNELS 3 Zrotation Xrotation Yrotation
                  End Site
                  {
                    OFFSET -1.78271 -1.18214 1.43049
                  }
                }
              }
              JOINT rIndex1
              {
                OFFSET -7.75947 0.938293 5.60832
                CHANNELS 3 Zrotation Xrotation Yrotation
                JOINT rIndex2
                {
                  OFFSET -2.54057 -0.884171 1.56538
                  CHANNELS 3 Zrotation Xrotation Yrotation
                  End Site
                  {
                    OFFSET -1.62519 -0.234802 1.16502
                  }
                }
              }
              JOINT rMid1
              {
                OFFSET -8.24714 1.18213 3.41376
                CHANNELS 3 Zrotation Xrotation Yrotation
                JOINT rMid2
                {
                  OFFSET -3.10165 -0.590103 1.0647
                  CHANNELS 3 Zrotation Xrotation Yrotation
                  End Site
                  {
                    OFFSET -2.48547 -0.328903 0.83742
                  }
                }
              }
              JOINT rRing1
              {
                OFFSET -8.82822 0.546677 1.51678
                CHANNELS 3 Zrotation Xrotation Yrotation
                JOINT rRing2
                {
                  OFFSET -2.60934 -0.819778 -0.0198488
                  CHANNELS 3 Zrotation Xrotation Yrotation
                  End Site
                  {
                    OFFSET -2.33842 -0.294052 0.168128
                  }
                }
              }
              JOINT rPinky1
              {
                OFFSET -8.27202 -0.0477905 -0.4584
                CHANNELS 3 Zrotation Xrotation Yrotation
                JOINT rPinky2
                {
                  OFFSET -1.82734 -0.647385 -0.700984
                  CHANNELS 3 Zrotation Xrotation Yrotation
                  End Site
                  {
                    OFFSET -1.69225 -0.51767 -0.607171
                  }
                }
              }
            }
          }
        }
      }
      JOINT lCollar
      {
        OFFSET 2.68224 19.2634 -4.8768
        CHANNELS 3 Zrotation Xrotation Yrotation
        JOINT lShldr
        {
          OFFSET 8.77824 -1.95073 1.46304
          CHANNELS 3 Zrotation Xrotation Yrotation
          JOINT lForeArm
          {
            OFFSET 28.1742 -1.7115 0.48768
            CHANNELS 3 Zrotation Xrotation Yrotation
            JOINT lHand
            {
              OFFSET 22.5879 0.773209 7.07136
              CHANNELS 3 Zrotation Xrotation Yrotation
              JOINT lThumb1
              {
                OFFSET 1.2192 -0.487915 3.41376
                CHANNELS 3 Zrotation Xrotation Yrotation
                JOINT lThumb2
                {
                  OFFSET 3.37035 -0.52449 3.41376
                  CHANNELS 3 Zrotation Xrotation Yrotation
                  End Site
                  {
                    OFFSET 1.78271 -1.18214 1.43049
                  }
                }
              }
              JOINT lIndex1
              {
                OFFSET 7.75947 0.938293 5.60832
                CHANNELS 3 Zrotation Xrotation Yrotation
                JOINT lIndex2
                {
                  OFFSET 2.54057 -0.884171 1.56538
                  CHANNELS 3 Zrotation Xrotation Yrotation
                  End Site
                  {
                    OFFSET 1.62519 -0.234802 1.16502
                  }
                }
              }
              JOINT lMid1
              {
                OFFSET 8.24714 1.18213 3.41376
                CHANNELS 3 Zrotation Xrotation Yrotation
                JOINT lMid2
                {
                  OFFSET 3.10165 -0.590103 1.0647
                  CHANNELS 3 Zrotation Xrotation Yrotation
                  End Site
                  {
                    OFFSET 2.48547 -0.328903 0.83742
                  }
                }
              }
              JOINT lRing1
              {
                OFFSET 8.82822 0.546677 1.51678
                CHANNELS 3 Zrotation Xrotation Yrotation
                JOINT lRing2
                {
                  OFFSET 2.60934 -0.819778 -0.0198488
                  CHANNELS 3 Zrotation Xrotation Yrotation
                  End Site
                  {
                    OFFSET 2.33842 -0.294052 0.168128
                  }
                }
              }
              JOINT lPinky1
              {
                OFFSET 8.27202 -0.0477905 -0.4584
                CHANNELS 3 Zrotation Xrotation Yrotation
                JOINT lPinky2
                {
                  OFFSET 1.82734 -0.647385 -0.700984
                  CHANNELS 3 Zrotation Xrotation Yrotation
                  End Site
                  {
                    OFFSET 1.69225 -0.51767 -0.607171
                  }
                }
              }
            }
          }
        }
      }
    }
  }
  JOINT rButtock
  {
    OFFSET -8.77824 4.35084 1.2192
    CHANNELS 3 Zrotation Xrotation Yrotation
    JOINT rThigh
    {
      OFFSET 0 -1.70687 -2.19456
      CHANNELS 3 Zrotation Xrotation Yrotation
      JOINT rShin
      {
        OFFSET 0 -36.8199 0.73152
        CHANNELS 3 Zrotation Xrotation Yrotation
        JOINT rFoot
        {
          OFFSET 0.73152 -45.1104 -5.12064
          CHANNELS 3 Zrotation Xrotation Yrotation
          End Site
          {
            OFFSET -1.1221 -3.69964 12.103
          }
        }
      }
    }
  }
  JOINT lButtock
  {
    OFFSET 8.77824 4.35084 1.2192
    CHANNELS 3 Zrotation Xrotation Yrotation
    JOINT lThigh
    {
      OFFSET 0 -1.70687 -2.19456
      CHANNELS 3 Zrotation Xrotation Yrotation
      JOINT lShin
      {
        OFFSET 0 -36.8199 0.73152
        CHANNELS 3 Zrotation Xrotation Yrotation
        JOINT lFoot
        {
          OFFSET -0.73152 -45.1104 -5.12064
          CHANNELS 3 Zrotation Xrotation Yrotation
          End Site
          {
            OFFSET 1.1221 -3.69964 12.103
          }
        }
      }
    }
  }
}
MOTION
Frames:	7
Frame Time:	0.00833333
-2.74118 84.2564 37.1691 0.943675 0.00141497 -0.0174859 -1.24151 -0.00398117 -0.034079 -0.342495 -0.00249259 -0.0593274 -1.10064e-014 -2.38542e-015 -3.35449e-016 -3.28678e-014 -6.36111e-015 -9.56651e-016 -0 0 0 -0 0 0 -5.61734e-015 -2.73717e-017 4.96962e-017 -1.1296e-013 -6.7711e-016 -2.98177e-015 -1.99853e-012 5.8224e-013 -2.22639e-014 -2.28549e-011 -6.93361e-013 -7.53791e-013 -5.39149e-011 -2.38658e-013 -1.65707e-012 -9.31095e-011 -4.10292e-013 -2.85137e-012 -5.39084e-011 -2.33771e-013 -1.67297e-012 7.73091 5.47488 0.417314 -5.3915e-011 -2.38243e-013 -1.65389e-012 2.90554 0.965183 0.102902 -5.39049e-011 -2.37846e-013 -1.6523e-012 10.2786 0.731801 0.0259123 -5.39114e-011 -2.40529e-013 -1.63799e-012 2.22167 -0.733487 -0.20892 -5.61435e-015 -3.06719e-017 -3.47873e-016 -1.18497e-013 -8.75895e-016 -4.77083e-015 -1.99242e-012 -6.20606e-013 -7.31528e-014 -2.28594e-011 4.90998e-013 -6.87e-013 -5.39136e-011 -2.78214e-013 -1.65071e-012 -9.31127e-011 -4.83444e-013 -2.84739e-012 -5.39219e-011 -2.7313e-013 -1.63799e-012 -7.73091 5.47488 -0.417314 -5.39148e-011 -2.77802e-013 -1.65707e-012 -2.90554 0.965183 -0.102902 -5.39231e-011 -2.77404e-013 -1.6515e-012 -10.2786 0.731801 -0.0259123 -5.39094e-011 -2.78696e-013 -1.66661e-012 -2.22167 -0.733487 0.20892 -2.03217e-016 0 -3.88251e-019 -0.453781 -1.92099 -0.00952811 -0.00915604 -2.07857 -0.075556 -0.487516 3.99699 0.136662 2.03217e-016 0 3.88251e-019 -1.43722 -5.97116 0.12966 -0.0012646 5.25797 -0.0454172 0.507763 0.710739 -0.0722677 
-4.81728 84.0667 36.9845 0.506407 -0.0625817 -1.2476 -1.27546 -0.649179 0.905004 -0.214623 -0.471819 0.217937 -0.291896 1.79438 -0.606837 1.27808 2.80421 -1.27251 -0 0 0 -0 0 0 6.14684e-015 4.80713e-015 1.60247e-014 23.3239 7.11897 -4.26927 -6.62237 -3.71564 9.46131 0.0590867 5.39791 0.74653 -1.129e-010 8.99014e-011 8.07364e-012 -1.94588e-010 1.53859e-010 1.53602e-011 -1.12893e-010 8.99041e-011 8.06216e-012 7.73091 5.47488 0.417314 -1.129e-010 8.99018e-011 8.07595e-012 2.90554 0.965183 0.102902 -1.12892e-010 8.99022e-011 8.07812e-012 10.2786 0.731801 0.0259123 -1.12897e-010 8.99007e-011 8.09098e-012 2.22167 -0.733487 -0.20892 6.06369e-015 4.80429e-015 1.56407e-014 -23.6305 7.67014 2.49637 5.38175 -2.73154 -8.07249 -0.00768328 1.94872 -0.273306 -1.53589e-010 -1.16001e-010 5.41636e-011 -2.65136e-010 -1.99659e-010 9.47567e-011 -1.53596e-010 -1.15994e-010 5.41766e-011 -7.73091 5.47488 -0.417314 -1.53589e-010 -1.16e-010 5.41582e-011 -2.90554 0.965183 -0.102902 -1.53598e-010 -1.15999e-010 5.41615e-011 -10.2786 0.731801 -0.0259123 -1.53585e-010 -1.15999e-010 5.41477e-011 -2.22167 -0.733487 0.20892 -2.03217e-016 0 -3.88251e-019 -6.20267 -2.18644 -0.0113774 -0.00656401 -1.74865 -0.05643 -0.286742 3.92979 0.106047 2.03217e-016 0 3.88251e-019 0.66617 -5.48482 -1.38503 -0.0213704 9.43266 -0.180838 1.02184 -5.30142 5.27147 
-4.65237 84.083 36.9153 0.0452804 -0.134307 -2.55176 -1.29599 -1.3318 1.89676 -0.0677074 -0.957909 0.510952 -0.555926 3.67799 -1.24826 2.7585 5.76787 -2.62369 -0 0 0 -0 0 0 1.92771e-014 1.00769e-014 3.45078e-014 49.1668 14.5049 -8.99561 -12.3082 -7.30809 19.5914 -0.0341555 11.1161 1.56017 -1.81435e-010 1.91124e-010 2.0346e-011 -3.12502e-010 3.27059e-010 3.81647e-011 -1.81429e-010 1.91124e-010 2.03392e-011 7.73091 5.47488 0.417314 -1.81436e-010 1.91124e-010 2.03474e-011 2.90554 0.965183 0.102902 -1.81429e-010 1.91124e-010 2.03501e-011 10.2786 0.731801 0.0259123 -1.81433e-010 1.91124e-010 2.03615e-011 2.22167 -0.733487 -0.20892 1.90989e-014 1.00746e-014 3.41382e-014 -49.3684 15.7052 5.27062 10.2244 -5.42275 -16.6385 0.00450892 4.02337 -0.565354 -2.64268e-010 -2.46439e-010 1.1628e-010 -4.56139e-010 -4.24181e-010 2.03367e-010 -2.64274e-010 -2.46431e-010 1.16294e-010 -7.73091 5.47488 -0.417314 -2.64267e-010 -2.46437e-010 1.16276e-010 -2.90554 0.965183 -0.102902 -2.64275e-010 -2.46437e-010 1.16277e-010 -10.2786 0.731801 -0.0259123 -2.64264e-010 -2.46436e-010 1.16265e-010 -2.22167 -0.733487 0.20892 -2.03217e-016 0 -3.88251e-019 -12.2796 -2.46783 -0.0133474 -0.00406785 -1.39868 -0.0362648 -0.0746153 3.85833 0.0736879 2.03217e-016 0 3.88251e-019 2.91369 -4.9686 -2.97599 -0.0205069 13.8549 -0.328968 2.79925 -11.4888 11.0975 
-4.47768 84.1006 36.8586 -0.376366 -0.19022 -3.70786 -1.2799 -1.93753 2.78459 0.0547493 -1.41035 0.772677 -0.761251 5.38071 -1.82767 4.21105 8.39595 -3.85432 -0 0 0 -0 0 0 2.96752e-014 1.44761e-014 4.79747e-014 73.3131 20.8662 -13.6175 -16.3075 -9.93268 28.7947 -0.259423 16.1825 2.32169 -2.30869e-010 2.70182e-010 2.75351e-011 -3.97545e-010 4.62398e-010 5.17833e-011 -2.30862e-010 2.7018e-010 2.75324e-011 7.73091 5.47488 0.417314 -2.3087e-010 2.70182e-010 2.75356e-011 2.90554 0.965183 0.102902 -2.30865e-010 2.70182e-010 2.7539e-011 10.2786 0.731801 0.0259123 -2.30867e-010 2.70183e-010 2.75489e-011 2.22167 -0.733487 -0.20892 2.94198e-014 1.44742e-014 4.76179e-014 -73.0348 22.8281 8.05684 13.8959 -7.54532 -24.4148 0.0329697 5.84562 -0.823728 -3.5294e-010 -3.47446e-010 1.65792e-010 -6.09181e-010 -5.98011e-010 2.89965e-010 -3.52945e-010 -3.47437e-010 1.65806e-010 -7.73091 5.47488 -0.417314 -3.52938e-010 -3.47443e-010 1.65789e-010 -2.90554 0.965183 -0.102902 -3.52946e-010 -3.47443e-010 1.65788e-010 -10.2786 0.731801 -0.0259123 -3.52937e-010 -3.47441e-010 1.65776e-010 -2.22167 -0.733487 0.20892 -2.03217e-016 0 -3.88251e-019 -17.7005 -2.71736 -0.0150789 -0.0020408 -1.08879 -0.018202 0.11459 3.79538 0.0448312 2.03217e-016 0 3.88251e-019 4.95038 -4.5036 -4.40761 0.000461887 17.7816 -0.467038 5.48876 -16.7083 16.6114 
-4.09753 84.1144 36.7598 -0.692614 -0.207 -4.49374 -1.2171 -2.35296 3.41127 0.106917 -1.77879 0.955992 -0.898771 6.63345 -2.24554 5.32798 10.2008 -4.74856 -0 0 0 -0 0 0 3.32429e-014 1.66991e-014 4.8901e-014 90.8186 25.1264 -17.2135 -18.5594 -11.301 35.2876 -0.49718 19.63 2.87329 -2.32549e-010 2.93829e-010 2.20158e-011 -4.00408e-010 5.03084e-010 4.24373e-011 -2.32542e-010 2.93826e-010 2.20158e-011 7.73091 5.47488 0.417314 -2.3255e-010 2.93829e-010 2.20158e-011 2.90554 0.965183 0.102902 -2.32547e-010 2.93829e-010 2.20198e-011 10.2786 0.731801 0.0259123 -2.32549e-010 2.93831e-010 2.20285e-011 2.22167 -0.733487 -0.20892 3.29546e-014 1.66971e-014 4.85532e-014 -90.0022 27.8359 10.3534 16.1708 -8.8468 -30.0339 0.0611285 7.03738 -0.994094 -3.86595e-010 -3.74873e-010 1.83792e-010 -6.67322e-010 -6.45112e-010 3.21529e-010 -3.866e-010 -3.74863e-010 1.83804e-010 -7.73091 5.47488 -0.417314 -3.86594e-010 -3.74871e-010 1.83788e-010 -2.90554 0.965183 -0.102902 -3.86602e-010 -3.7487e-010 1.83786e-010 -10.2786 0.731801 -0.0259123 -3.86592e-010 -3.74867e-010 1.83776e-010 -2.22167 -0.733487 0.20892 -2.03217e-016 0 -3.88251e-019 -21.4813 -2.88729 -0.0162122 -0.000718926 -0.87911 -0.00538033 0.246647 3.75366 0.0247191 2.03217e-016 0 3.88251e-019 6.40632 -4.17158 -5.44533 0.0265915 20.47 -0.566649 8.00447 -20.1001 20.7113 
-4.11658 84.1249 36.7401 -0.883369 -0.172873 -4.75177 -1.06527 -2.50449 3.66903 0.0327182 -2.05233 1.0279 -0.984714 7.28687 -2.43536 5.87115 10.8863 -5.15428 -0 0 0 -0 0 0 2.54284e-014 1.60431e-014 2.57597e-014 97.8549 26.7988 -18.8465 -19.3202 -11.6972 37.7984 -0.598838 20.8041 3.06985 -1.46117e-010 2.22158e-010 -1.01767e-011 -2.51656e-010 3.81066e-010 -1.48109e-011 -1.46109e-010 2.22153e-010 -1.01759e-011 7.73091 5.47488 0.417314 -1.46117e-010 2.22155e-010 -1.01768e-011 2.90554 0.965183 0.102902 -1.46115e-010 2.22155e-010 -1.01718e-011 10.2786 0.731801 0.0259123 -1.46119e-010 2.22159e-010 -1.0164e-011 2.22167 -0.733487 -0.20892 2.51744e-014 1.60403e-014 2.54107e-014 -96.8148 30.0527 11.6076 17.1351 -9.43389 -32.5843 0.0702329 7.31688 -1.03435 -3.24471e-010 -2.63841e-010 1.50784e-010 -5.60224e-010 -4.53605e-010 2.63991e-010 -3.24478e-010 -2.63833e-010 1.50794e-010 -7.73091 5.47488 -0.417314 -3.24472e-010 -2.63841e-010 1.5078e-010 -2.90554 0.965183 -0.102902 -3.2448e-010 -2.6384e-010 1.50778e-010 -10.2786 0.731801 -0.0259123 -3.24469e-010 -2.63837e-010 1.50767e-010 -2.22167 -0.733487 0.20892 -2.03217e-016 0 -3.88251e-019 -22.9671 -2.94512 -0.0164839 -0.000164796 -0.811382 0.000222449 0.299296 3.74267 0.0167809 2.03217e-016 0 3.88251e-019 7.05056 -4.01193 -5.94683 0.0383457 21.4152 -0.603588 9.14419 -21.3741 22.402 
-4.14558 84.1344 36.717 -0.983303 -0.10223 -4.6332 -0.856525 -2.46786 3.66314 -0.131845 -2.25703 1.02026 -1.04261 7.51133 -2.46064 5.97439 10.7746 -5.20344 -0 0 0 -0 0 0 9.57047e-015 1.33226e-014 -1.42628e-014 97.1036 26.7345 -18.9068 -19.2031 -11.6173 37.4324 -0.568126 20.3571 2.99659 2.24039e-012 8.32471e-011 -6.09987e-011 3.65323e-012 1.44267e-010 -1.05525e-010 2.25038e-012 8.32401e-011 -6.09983e-011 7.73091 5.47488 0.417314 2.2418e-012 8.32408e-011 -6.09985e-011 2.90554 0.965183 0.102902 2.24314e-012 8.32413e-011 -6.09923e-011 10.2786 0.731801 0.0259123 2.23532e-012 8.32458e-011 -6.09851e-011 2.22167 -0.733487 -0.20892 9.39858e-015 1.33186e-014 -1.462e-014 -96.1392 30.32 11.9721 17.305 -9.63857 -32.9163 0.0626861 6.94627 -0.981336 -1.94827e-010 -5.55972e-011 8.16707e-011 -3.36641e-010 -9.45786e-011 1.43383e-010 -1.94837e-010 -5.55917e-011 8.16782e-011 -7.73091 5.47488 -0.417314 -1.94831e-010 -5.56007e-011 8.16653e-011 -2.90554 0.965183 -0.102902 -1.94839e-010 -5.56009e-011 8.16643e-011 -10.2786 0.731801 -0.0259123 -1.94825e-010 -5.5597e-011 8.16536e-011 -2.22167 -0.733487 0.20892 -2.03217e-016 0 -3.88251e-019 -22.8136 -2.92293 -0.0161412 -0.000111742 -0.84497 0.000664294 0.295216 3.75358 0.0175404 2.03217e-016 0 3.88251e-019 7.10791 -3.97627 -6.06502 0.0348255 21.1158 -0.593469 9.02966 -21.2665 22.2515 
